<?xml version="1.0" encoding="iso-8859-1"?>
<!-- Generator: Adobe Illustrator 18.1.1, SVG Export Plug-In . SVG Version: 6.00 Build 0)  -->
<svg version="1.1" id="Capa_1" xmlns="http://www.w3.org/2000/svg" xmlns:xlink="http://www.w3.org/1999/xlink" x="0px" y="0px"
	 viewBox="0 0 23.199 23.199" style="enable-background:new 0 0 23.199 23.199;" xml:space="preserve">
<g>
	<g>
		<g>
			<path style="fill:#fff;" d="M1.849,12.282c-0.014-0.226-0.021-0.454-0.021-0.684c0-5.899,4.785-10.684,10.686-10.684
				c5.899,0,10.685,4.785,10.685,10.685s-4.785,10.686-10.685,10.686c-3.688,0-6.94-1.869-8.861-4.712l2.533-1.707
				c1.371,2.028,3.694,3.364,6.328,3.364c4.213,0,7.631-3.418,7.631-7.631s-3.416-7.631-7.631-7.631
				c-4.214,0-7.631,3.418-7.631,7.631c0,0.23,0.01,0.459,0.03,0.684L1.849,12.282L1.849,12.282z M6.81,12.282H4.912H1.849H0l0,0
				l3.405,3.405L6.81,12.282L6.81,12.282z"/>
		</g>
	</g>
</g>
<g>
</g>
<g>
</g>
<g>
</g>
<g>
</g>
<g>
</g>
<g>
</g>
<g>
</g>
<g>
</g>
<g>
</g>
<g>
</g>
<g>
</g>
<g>
</g>
<g>
</g>
<g>
</g>
<g>
</g>
</svg>
